<?xml version="1.0" encoding="utf-8"?>
<!-- Generated by IcoMoon.io -->
<!DOCTYPE svg PUBLIC "-//W3C//DTD SVG 1.1//EN" "http://www.w3.org/Graphics/SVG/1.1/DTD/svg11.dtd">
<svg version="1.1" xmlns="http://www.w3.org/2000/svg" xmlns:xlink="http://www.w3.org/1999/xlink" width="128" height="128" viewBox="0 0 128 128">
<g id="icomoon-ignore">
	<line stroke-width="1" x1="" y1="" x2="" y2="" stroke="#449FDB" opacity=""></line>
</g>
	<path d="M126.833 102.832c-0.001-0.001-0.001-0.001-0.001-0.001l-38.831-38.831 38.831-38.831c0.001-0 0.001-0.001 0.001-0.001 0.418-0.418 0.72-0.907 0.914-1.427 0.531-1.422 0.228-3.085-0.915-4.229l-18.343-18.343c-1.144-1.143-2.806-1.446-4.228-0.915-0.52 0.194-1.009 0.496-1.427 0.914 0 0-0.001 0.001-0.001 0.001l-38.831 38.831-38.831-38.831c-0-0-0.001-0.001-0.001-0.001-0.418-0.418-0.907-0.72-1.427-0.914-1.422-0.531-3.085-0.228-4.229 0.915l-18.343 18.343c-1.143 1.143-1.446 2.806-0.915 4.229 0.194 0.52 0.496 1.009 0.914 1.427 0 0 0.001 0.001 0.001 0.001l38.831 38.831-38.831 38.832c-0 0.001-0.001 0.001-0.001 0.001-0.418 0.418-0.72 0.907-0.914 1.427-0.531 1.422-0.228 3.085 0.915 4.229l18.343 18.343c1.144 1.144 2.806 1.446 4.229 0.915 0.52-0.194 1.009-0.496 1.427-0.914 0-0.001 0.001-0.001 0.001-0.001l38.831-38.831 38.831 38.831c0.001 0 0.001 0.001 0.001 0.001 0.418 0.418 0.907 0.72 1.427 0.914 1.422 0.531 3.085 0.228 4.228-0.915l18.343-18.344c1.144-1.144 1.446-2.807 0.915-4.229-0.194-0.52-0.496-1.008-0.914-1.427z" fill="#ffffff"></path>
</svg>
