<?xml version="1.0" encoding="utf-8"?>
<!-- Generated by IcoMoon.io -->
<!DOCTYPE svg PUBLIC "-//W3C//DTD SVG 1.1//EN" "http://www.w3.org/Graphics/SVG/1.1/DTD/svg11.dtd">
<svg version="1.1" xmlns="http://www.w3.org/2000/svg" xmlns:xlink="http://www.w3.org/1999/xlink" width="64" height="64" viewBox="0 0 64 64">
<g id="icomoon-ignore">
	<line stroke-width="1" x1="" y1="" x2="" y2="" stroke="#449FDB" opacity=""></line>
</g>
	<path d="M51.2 28.8h-38.4c-1.766 0-3.2 1.434-3.2 3.2s1.434 3.2 3.2 3.2h38.4c1.77 0 3.2-1.434 3.2-3.2s-1.43-3.2-3.2-3.2zM12.8 22.4h38.4c1.77 0 3.2-1.434 3.2-3.2s-1.43-3.2-3.2-3.2h-38.4c-1.766 0-3.2 1.434-3.2 3.2s1.434 3.2 3.2 3.2zM51.2 41.6h-38.4c-1.766 0-3.2 1.43-3.2 3.2s1.434 3.2 3.2 3.2h38.4c1.77 0 3.2-1.43 3.2-3.2s-1.43-3.2-3.2-3.2z" fill="#000000"></path>
</svg>
